<svg width="151" height="151" viewBox="0 0 151 151" fill="none" xmlns="http://www.w3.org/2000/svg">
<path d="M80.7018 131.032C79.2893 136.41 71.6549 136.41 70.2424 131.032L65.1502 111.643C64.2415 108.183 60.2831 106.544 57.1938 108.348L39.8832 118.457C35.0816 121.261 29.6833 115.863 32.4874 111.061L42.5965 93.7505C44.4006 90.6611 42.761 86.7028 39.3008 85.794L19.9121 80.7018C14.5341 79.2893 14.5341 71.6549 19.9122 70.2424L39.3008 65.1502C42.761 64.2415 44.4006 60.2831 42.5964 57.1938L32.4874 39.8833C29.6833 35.0816 35.0816 29.6833 39.8833 32.4874L57.1938 42.5964C60.2831 44.4006 64.2415 42.761 65.1502 39.3008L70.2424 19.9121C71.6549 14.5341 79.2894 14.5341 80.7018 19.9122L85.794 39.3008C86.7028 42.761 90.6611 44.4006 93.7505 42.5964L111.061 32.4873C115.863 29.6833 121.261 35.0816 118.457 39.8833L108.348 57.1938C106.544 60.2831 108.183 64.2415 111.643 65.1502L131.032 70.2424C136.41 71.6549 136.41 79.2894 131.032 80.7018L111.643 85.794C108.183 86.7028 106.544 90.6611 108.348 93.7505L118.457 111.061C121.261 115.863 115.863 121.261 111.061 118.457L93.7505 108.348C90.6611 106.544 86.7028 108.183 85.794 111.643L80.7018 131.032Z" fill="#B9E2E6"/>
<circle cx="75.4722" cy="75.4721" r="19.3109" transform="rotate(180 75.4722 75.4721)" fill="#FFF2C4"/>
</svg>
