<svg width="196" height="196" viewBox="0 0 196 196" fill="none" xmlns="http://www.w3.org/2000/svg">
<path d="M90.8207 37.6462C92.2207 29.9921 103.192 29.9921 104.592 37.6462L105.671 43.5439C106.733 49.3518 114.066 51.3167 117.89 46.8181L121.773 42.2498C126.813 36.3212 136.315 41.807 133.7 49.1356L131.685 54.7826C129.701 60.3436 135.069 65.7117 140.63 63.7278L146.277 61.7131C153.606 59.0985 159.092 68.6001 153.163 73.6396L148.595 77.5227C144.096 81.3466 146.061 88.6797 151.869 89.742L157.767 90.8207C165.421 92.2207 165.421 103.192 157.767 104.592L151.869 105.671C146.061 106.733 144.096 114.066 148.595 117.89L153.163 121.773C159.092 126.813 153.606 136.315 146.277 133.7L140.63 131.685C135.069 129.701 129.701 135.069 131.685 140.63L133.7 146.277C136.315 153.606 126.813 159.092 121.773 153.163L117.89 148.595C114.066 144.096 106.733 146.061 105.671 151.869L104.592 157.767C103.192 165.421 92.2207 165.421 90.8207 157.767L89.742 151.869C88.6797 146.061 81.3466 144.096 77.5227 148.595L73.6396 153.163C68.6001 159.092 59.0985 153.606 61.7131 146.277L63.7278 140.63C65.7117 135.069 60.3436 129.701 54.7826 131.685L49.1356 133.7C41.807 136.315 36.3212 126.813 42.2498 121.773L46.8181 117.89C51.3167 114.066 49.3518 106.733 43.5439 105.671L37.6462 104.592C29.9921 103.192 29.9921 92.2207 37.6462 90.8207L43.5439 89.742C49.3518 88.6797 51.3167 81.3466 46.8181 77.5227L42.2498 73.6396C36.3212 68.6001 41.807 59.0985 49.1356 61.7131L54.7826 63.7278C60.3436 65.7117 65.7117 60.3436 63.7278 54.7826L61.7131 49.1356C59.0985 41.807 68.6001 36.3212 73.6396 42.2498L77.5227 46.8181C81.3466 51.3167 88.6797 49.3518 89.742 43.5439L90.8207 37.6462Z" fill="#FFC4C4"/>
<circle cx="97.7065" cy="97.7065" r="25" fill="#FFF2C4"/>
</svg>
