<svg width="129" height="130" viewBox="0 0 129 130" fill="none" xmlns="http://www.w3.org/2000/svg">
<path fill-rule="evenodd" clip-rule="evenodd" d="M75.0689 2.09098C78.0057 -1.68131 84.0337 -0.0661232 84.691 4.66911L88.4381 31.675L116.057 28.2365C120.801 27.6457 123.922 33.0504 121.039 36.8634L104.052 59.3214L126.199 76.5627C129.971 79.4995 128.356 85.5275 123.621 86.1847L96.1822 89.9923L99.5523 117.05C100.143 121.794 94.7385 124.915 90.9254 122.031L69.027 105.47L51.7271 127.693C48.7903 131.465 42.7624 129.85 42.1051 125.114L38.2203 97.1222L10.7389 100.545C5.99483 101.136 2.87391 95.7312 5.75742 91.9181L22.2643 70.089L0.597265 53.2209C-3.17489 50.2841 -1.55971 44.2562 3.17539 43.5988L30.735 39.7736L27.2437 11.7316C26.653 6.98751 32.0576 3.86745 35.8707 6.75114L58.2594 23.6818L75.0689 2.09098Z" fill="#E4B9E6"/>
<circle cx="63.3981" cy="64.3908" r="19.3109" fill="#FFF2C4"/>
</svg>
