<svg width="1280" height="122" viewBox="0 0 1280 122" fill="none" xmlns="http://www.w3.org/2000/svg">
<path d="M21.6177 8.58262C21.9192 6.48403 24.8664 6.19318 25.5332 8.20574L62.5272 119.868C62.956 121.162 61.9922 122.497 60.6287 122.497H-13.9252C-15.5437 122.497 -16.4945 120.672 -15.5843 119.333C5.87543 87.7794 14.1002 60.9174 21.6177 8.58262Z" fill="#C5E6B9"/>
<path d="M65.7039 51.4038C66.0374 49.3597 68.8951 49.0657 69.6077 51.0104L94.8187 119.809C95.297 121.114 94.3308 122.497 92.9408 122.497H42.1041C40.4414 122.497 39.5026 120.576 40.4898 119.238C54.7595 99.899 60.5534 82.971 65.7039 51.4038Z" fill="#C5E6B9"/>
<path d="M103.362 12.0447C103.125 9.79528 99.8947 9.56647 99.3756 11.7679L73.8408 120.038C73.5446 121.293 74.4972 122.497 75.7874 122.497H127.808C129.294 122.497 130.261 120.931 129.612 119.594C114.583 88.631 108.635 62.2582 103.362 12.0447Z" fill="#C5E6B9"/>
<path d="M136.879 73.7834C136.411 72.0936 134.147 71.7399 133.212 73.2232L104.084 119.43C103.244 120.762 104.202 122.497 105.776 122.497H163.215C165.137 122.497 165.97 120.014 164.483 118.798C149.089 106.205 142.68 94.7343 136.879 73.7834Z" fill="#C5E6B9"/>
<path d="M170.428 8.58262C170.729 6.48403 173.676 6.19318 174.343 8.20574L211.337 119.868C211.766 121.162 210.802 122.497 209.439 122.497H134.885C133.266 122.497 132.315 120.672 133.226 119.333C154.685 87.7794 162.91 60.9174 170.428 8.58262Z" fill="#C5E6B9"/>
<path d="M214.514 51.4038C214.847 49.3597 217.705 49.0657 218.418 51.0104L243.629 119.809C244.107 121.114 243.141 122.497 241.751 122.497H190.914C189.251 122.497 188.313 120.576 189.3 119.238C203.569 99.899 209.363 82.971 214.514 51.4038Z" fill="#C5E6B9"/>
<path d="M252.172 12.0447C251.935 9.79528 248.705 9.56647 248.185 11.7679L222.651 120.038C222.355 121.293 223.307 122.497 224.597 122.497H276.618C278.104 122.497 279.071 120.931 278.422 119.594C263.393 88.631 257.445 62.2582 252.172 12.0447Z" fill="#C5E6B9"/>
<path d="M285.689 73.7834C285.221 72.0936 282.957 71.7399 282.022 73.2232L252.894 119.43C252.054 120.762 253.012 122.497 254.586 122.497H312.025C313.947 122.497 314.78 120.014 313.293 118.798C297.899 106.205 291.49 94.7343 285.689 73.7834Z" fill="#C5E6B9"/>
<path d="M307.462 8.58262C307.763 6.48403 310.71 6.19318 311.377 8.20574L348.371 119.868C348.8 121.162 347.836 122.497 346.472 122.497H271.919C270.3 122.497 269.349 120.672 270.259 119.333C291.719 87.7794 299.944 60.9174 307.462 8.58262Z" fill="#C5E6B9"/>
<path d="M351.548 51.4038C351.881 49.3597 354.739 49.0657 355.452 51.0104L380.663 119.809C381.141 121.114 380.175 122.497 378.785 122.497H327.948C326.285 122.497 325.346 120.576 326.334 119.238C340.603 99.899 346.397 82.971 351.548 51.4038Z" fill="#C5E6B9"/>
<path d="M389.206 12.0447C388.969 9.79528 385.739 9.56647 385.219 11.7679L359.685 120.038C359.388 121.293 360.341 122.497 361.631 122.497H413.652C415.138 122.497 416.105 120.931 415.456 119.594C400.427 88.631 394.479 62.2582 389.206 12.0447Z" fill="#C5E6B9"/>
<path d="M422.723 73.7834C422.255 72.0936 419.991 71.7399 419.056 73.2232L389.928 119.43C389.088 120.762 390.045 122.497 391.62 122.497H449.059C450.981 122.497 451.814 120.014 450.326 118.798C434.933 106.205 428.524 94.7343 422.723 73.7834Z" fill="#C5E6B9"/>
<path d="M442.538 8.58262C442.839 6.48403 445.787 6.19318 446.453 8.20574L483.447 119.868C483.876 121.162 482.912 122.497 481.549 122.497H406.995C405.377 122.497 404.426 120.672 405.336 119.333C426.796 87.7794 435.02 60.9174 442.538 8.58262Z" fill="#C5E6B9"/>
<path d="M486.624 51.4038C486.958 49.3597 489.815 49.0657 490.528 51.0104L515.739 119.809C516.217 121.114 515.251 122.497 513.861 122.497H463.024C461.362 122.497 460.423 120.576 461.41 119.238C475.68 99.899 481.474 82.971 486.624 51.4038Z" fill="#C5E6B9"/>
<path d="M524.282 12.0447C524.046 9.79528 520.815 9.56647 520.296 11.7679L494.761 120.038C494.465 121.293 495.417 122.497 496.708 122.497H548.729C550.215 122.497 551.181 120.931 550.533 119.594C535.504 88.631 529.555 62.2582 524.282 12.0447Z" fill="#C5E6B9"/>
<path d="M557.799 73.7834C557.331 72.0936 555.067 71.7399 554.132 73.2232L525.004 119.43C524.165 120.762 525.122 122.497 526.696 122.497H584.135C586.057 122.497 586.89 120.014 585.403 118.798C570.01 106.205 563.601 94.7343 557.799 73.7834Z" fill="#C5E6B9"/>
<path d="M579.572 10.1126C579.873 8.01399 582.821 7.72314 583.487 9.7357L620.481 121.398C620.91 122.692 619.946 124.027 618.583 124.027H544.029C542.41 124.027 541.46 122.202 542.37 120.863C563.83 89.3094 572.054 62.4473 579.572 10.1126Z" fill="#C5E6B9"/>
<path d="M623.658 52.9338C623.992 50.8897 626.849 50.5956 627.562 52.5403L652.773 121.339C653.251 122.644 652.285 124.027 650.895 124.027H600.058C598.396 124.027 597.457 122.106 598.444 120.768C612.714 101.429 618.508 84.5009 623.658 52.9338Z" fill="#C5E6B9"/>
<path d="M661.316 13.5747C661.08 11.3252 657.849 11.0964 657.33 13.2978L631.795 121.568C631.499 122.823 632.451 124.027 633.742 124.027H685.763C687.248 124.027 688.215 122.461 687.566 121.124C672.538 90.161 666.589 63.7882 661.316 13.5747Z" fill="#C5E6B9"/>
<path d="M694.833 75.3134C694.365 73.6236 692.101 73.2699 691.166 74.7532L662.038 120.96C661.199 122.292 662.156 124.027 663.73 124.027H721.169C723.091 124.027 723.924 121.545 722.437 120.328C707.043 107.735 700.635 96.2643 694.833 75.3134Z" fill="#C5E6B9"/>
<path d="M699.492 14.2339C699.793 12.1353 702.74 11.8444 703.407 13.857L740.401 125.519C740.83 126.814 739.866 128.148 738.503 128.148H663.949C662.33 128.148 661.379 126.323 662.29 124.985C683.749 93.4307 691.974 66.5686 699.492 14.2339Z" fill="#C5E6B9"/>
<path d="M743.578 57.0551C743.911 55.0109 746.769 54.7169 747.482 56.6616L772.693 125.46C773.171 126.765 772.205 128.148 770.815 128.148H719.978C718.315 128.148 717.377 126.227 718.364 124.889C732.633 105.55 738.427 88.6222 743.578 57.0551Z" fill="#C5E6B9"/>
<path d="M781.236 17.6959C780.999 15.4465 777.769 15.2177 777.25 17.4191L751.715 125.689C751.419 126.945 752.371 128.148 753.661 128.148H805.682C807.168 128.148 808.135 126.582 807.486 125.245C792.457 94.2823 786.509 67.9094 781.236 17.6959Z" fill="#C5E6B9"/>
<path d="M814.753 79.4347C814.285 77.7449 812.021 77.3912 811.086 78.8745L781.958 125.082C781.118 126.413 782.076 128.148 783.65 128.148H841.089C843.011 128.148 843.844 125.666 842.356 124.449C826.963 111.857 820.554 100.386 814.753 79.4347Z" fill="#C5E6B9"/>
<path d="M813.064 10.1126C813.366 8.01399 816.313 7.72314 816.98 9.7357L853.974 121.398C854.403 122.692 853.439 124.027 852.075 124.027H777.521C775.903 124.027 774.952 122.202 775.862 120.863C797.322 89.3094 805.547 62.4473 813.064 10.1126Z" fill="#C5E6B9"/>
<path d="M857.151 52.9338C857.484 50.8897 860.342 50.5956 861.054 52.5403L886.265 121.339C886.744 122.644 885.777 124.027 884.387 124.027H833.551C831.888 124.027 830.949 122.106 831.936 120.768C846.206 101.429 852 84.5009 857.151 52.9338Z" fill="#C5E6B9"/>
<path d="M894.808 13.5747C894.572 11.3252 891.341 11.0964 890.822 13.2978L865.287 121.568C864.991 122.823 865.944 124.027 867.234 124.027H919.255C920.741 124.027 921.708 122.461 921.059 121.124C906.03 90.161 900.082 63.7882 894.808 13.5747Z" fill="#C5E6B9"/>
<path d="M928.325 75.3134C927.858 73.6236 925.594 73.2699 924.659 74.7532L895.531 120.96C894.691 122.292 895.648 124.027 897.223 124.027H954.661C956.583 124.027 957.417 121.545 955.929 120.328C940.536 107.735 934.127 96.2643 928.325 75.3134Z" fill="#C5E6B9"/>
<path d="M813.064 10.1126C813.366 8.01399 816.313 7.72314 816.98 9.7357L853.974 121.398C854.403 122.692 853.439 124.027 852.075 124.027H777.521C775.903 124.027 774.952 122.202 775.862 120.863C797.322 89.3094 805.547 62.4473 813.064 10.1126Z" fill="#C5E6B9"/>
<path d="M857.151 52.9338C857.484 50.8897 860.342 50.5956 861.054 52.5403L886.265 121.339C886.744 122.644 885.777 124.027 884.387 124.027H833.551C831.888 124.027 830.949 122.106 831.936 120.768C846.206 101.429 852 84.5009 857.151 52.9338Z" fill="#C5E6B9"/>
<path d="M894.808 13.5747C894.572 11.3252 891.341 11.0964 890.822 13.2978L865.287 121.568C864.991 122.823 865.944 124.027 867.234 124.027H919.255C920.741 124.027 921.708 122.461 921.059 121.124C906.03 90.161 900.082 63.7882 894.808 13.5747Z" fill="#C5E6B9"/>
<path d="M928.325 75.3134C927.858 73.6236 925.594 73.2699 924.659 74.7532L895.531 120.96C894.691 122.292 895.648 124.027 897.223 124.027H954.661C956.583 124.027 957.417 121.545 955.929 120.328C940.536 107.735 934.127 96.2643 928.325 75.3134Z" fill="#C5E6B9"/>
<path d="M947.162 22.2892C947.463 20.1906 950.411 19.8998 951.077 21.9123L988.071 133.575C988.5 134.869 987.536 136.204 986.173 136.204H911.619C910 136.204 909.05 134.378 909.96 133.04C931.42 101.486 939.644 74.624 947.162 22.2892Z" fill="#C5E6B9"/>
<path d="M991.248 65.1104C991.582 63.0663 994.439 62.7723 995.152 64.717L1020.36 133.515C1020.84 134.821 1019.87 136.204 1018.48 136.204H967.648C965.985 136.204 965.047 134.282 966.034 132.945C980.304 113.606 986.098 96.6776 991.248 65.1104Z" fill="#C5E6B9"/>
<path d="M1028.91 25.7513C1028.67 23.5019 1025.44 23.2731 1024.92 25.4745L999.385 133.744C999.089 135 1000.04 136.204 1001.33 136.204H1053.35C1054.84 136.204 1055.81 134.637 1055.16 133.301C1040.13 102.338 1034.18 75.9648 1028.91 25.7513Z" fill="#C5E6B9"/>
<path d="M1062.42 87.49C1061.96 85.8002 1059.69 85.4465 1058.76 86.9298L1029.63 133.137C1028.79 134.469 1029.75 136.203 1031.32 136.203H1088.76C1090.68 136.203 1091.51 133.721 1090.03 132.504C1074.63 119.912 1068.22 108.441 1062.42 87.49Z" fill="#C5E6B9"/>
<path d="M1193.39 18.1679C1193.08 16.0693 1190.14 15.7784 1189.47 17.791L1152.48 129.453C1152.05 130.748 1153.01 132.082 1154.37 132.082H1228.93C1230.55 132.082 1231.5 130.257 1230.59 128.919C1209.13 97.3647 1200.9 70.5026 1193.39 18.1679Z" fill="#C5E6B9"/>
<path d="M1149.3 60.9891C1148.97 58.945 1146.11 58.651 1145.4 60.5957L1120.18 129.394C1119.71 130.699 1120.67 132.082 1122.06 132.082H1172.9C1174.56 132.082 1175.5 130.161 1174.51 128.823C1160.24 109.484 1154.45 92.5563 1149.3 60.9891Z" fill="#C5E6B9"/>
<path d="M1111.64 21.63C1111.88 19.3805 1115.11 19.1517 1115.63 21.3531L1141.16 129.623C1141.46 130.879 1140.51 132.082 1139.22 132.082H1087.19C1085.71 132.082 1084.74 130.516 1085.39 129.179C1100.42 98.2163 1106.37 71.8435 1111.64 21.63Z" fill="#C5E6B9"/>
<path d="M1078.12 83.3687C1078.59 81.6789 1080.86 81.3252 1081.79 82.8085L1110.92 129.016C1111.76 130.347 1110.8 132.082 1109.23 132.082H1051.79C1049.87 132.082 1049.03 129.6 1050.52 128.383C1065.91 115.791 1072.32 104.32 1078.12 83.3687Z" fill="#C5E6B9"/>
<path d="M1286.67 18.1679C1286.37 16.0693 1283.42 15.7784 1282.76 17.791L1245.76 129.453C1245.33 130.748 1246.3 132.082 1247.66 132.082H1322.21C1323.83 132.082 1324.78 130.257 1323.87 128.919C1302.41 97.3647 1294.19 70.5026 1286.67 18.1679Z" fill="#C5E6B9"/>
<path d="M1242.58 60.9891C1242.25 58.945 1239.39 58.651 1238.68 60.5957L1213.47 129.394C1212.99 130.699 1213.96 132.082 1215.35 132.082H1266.18C1267.85 132.082 1268.79 130.161 1267.8 128.823C1253.53 109.484 1247.74 92.5563 1242.58 60.9891Z" fill="#C5E6B9"/>
<path d="M1204.93 21.63C1205.16 19.3805 1208.39 19.1517 1208.91 21.3531L1234.45 129.623C1234.74 130.879 1233.79 132.082 1232.5 132.082H1180.48C1178.99 132.082 1178.03 130.516 1178.68 129.179C1193.71 98.2163 1199.65 71.8435 1204.93 21.63Z" fill="#C5E6B9"/>
<path d="M1171.41 83.3687C1171.88 81.6789 1174.14 81.3252 1175.08 82.8085L1204.2 129.016C1205.04 130.347 1204.09 132.082 1202.51 132.082H1145.07C1143.15 132.082 1142.32 129.6 1143.81 128.383C1159.2 115.791 1165.61 104.32 1171.41 83.3687Z" fill="#C5E6B9"/>
</svg>
