<svg width="187" height="120" viewBox="0 0 187 120" fill="none" xmlns="http://www.w3.org/2000/svg">
<path d="M39.3866 8.58262C39.688 6.48403 42.6353 6.19318 43.3021 8.20574L80.2961 119.868C80.7249 121.162 79.7611 122.497 78.3975 122.497H3.8437C2.22519 122.497 1.27435 120.672 2.18454 119.333C23.6443 87.7794 31.8691 60.9174 39.3866 8.58262Z" fill="#C5E6B9"/>
<path d="M83.4728 51.4038C83.8063 49.3597 86.664 49.0657 87.3766 51.0104L112.588 119.809C113.066 121.114 112.1 122.497 110.71 122.497H59.873C58.2102 122.497 57.2714 120.576 58.2587 119.238C72.5284 99.899 78.3223 82.971 83.4728 51.4038Z" fill="#C5E6B9"/>
<path d="M121.131 12.0447C120.894 9.79528 117.664 9.56647 117.144 11.7679L91.6097 120.038C91.3135 121.293 92.2661 122.497 93.5563 122.497H145.577C147.063 122.497 148.03 120.931 147.381 119.594C132.352 88.631 126.404 62.2582 121.131 12.0447Z" fill="#C5E6B9"/>
<path d="M154.648 73.7834C154.18 72.0936 151.916 71.74 150.981 73.2232L121.853 119.43C121.013 120.762 121.97 122.497 123.545 122.497H180.984C182.906 122.497 183.739 120.015 182.251 118.798C166.858 106.205 160.449 94.7344 154.648 73.7834Z" fill="#C5E6B9"/>
</svg>
