<svg width="59" height="59" viewBox="0 0 59 59" fill="none" xmlns="http://www.w3.org/2000/svg">
  <path d="M29.5 7.29V51.67" stroke="white" stroke-width="5.1" stroke-linecap="round" stroke-linejoin="round"/>
  <path d="M29.5 29.5C29.5 29.5 20.26 20.26 20.26 15.37C20.26 13.08 21.55 10.9 23.84 10.9C26.13 10.9 27.42 13.08 27.42 15.37C27.42 20.26 29.5 29.5 29.5 29.5Z" stroke="white" stroke-width="5.1" stroke-linecap="round" stroke-linejoin="round"/>
  <path d="M29.5 29.5C29.5 29.5 38.74 20.26 38.74 15.37C38.74 13.08 37.45 10.9 35.16 10.9C32.87 10.9 31.58 13.08 31.58 15.37C31.58 20.26 29.5 29.5 29.5 29.5Z" stroke="white" stroke-width="5.1" stroke-linecap="round" stroke-linejoin="round"/>
  <circle cx="20.26" cy="38.74" r="4.59" stroke="white" stroke-width="5.1" stroke-linecap="round" stroke-linejoin="round"/>
  <circle cx="38.74" cy="38.74" r="4.59" stroke="white" stroke-width="5.1" stroke-linecap="round" stroke-linejoin="round"/>
  <circle cx="29.5" cy="44.33" r="4.59" stroke="white" stroke-width="5.1" stroke-linecap="round" stroke-linejoin="round"/>
</svg>
