<svg width="59" height="64" viewBox="0 0 59 64" fill="none" xmlns="http://www.w3.org/2000/svg">
<path d="M29.16 32.0027C26.487 32.0027 24.1987 30.9582 22.2952 28.8691C20.3917 26.7801 19.44 24.2687 19.44 21.3352C19.44 18.4016 20.3917 15.8903 22.2952 13.8012C24.1987 11.7121 26.487 10.6676 29.16 10.6676C31.833 10.6676 34.1212 11.7121 36.0247 13.8012C37.9282 15.8903 38.88 18.4016 38.88 21.3352C38.88 24.2687 37.9282 26.7801 36.0247 28.8691C34.1212 30.9582 31.833 32.0027 29.16 32.0027ZM9.71997 53.3379V45.8706C9.71997 44.3594 10.0743 42.9704 10.7831 41.7036C11.4918 40.4368 12.4335 39.4701 13.608 38.8033C16.119 37.4254 18.6705 36.392 21.2625 35.7031C23.8545 35.0141 26.487 34.6696 29.16 34.6696C31.833 34.6696 34.4655 35.0141 37.0575 35.7031C39.6495 36.392 42.201 37.4254 44.712 38.8033C45.8865 39.4701 46.8281 40.4368 47.5368 41.7036C48.2456 42.9704 48.6 44.3594 48.6 45.8706V53.3379H9.71997ZM14.58 48.0041H43.74V45.8706C43.74 45.3817 43.6286 44.9372 43.4058 44.5372C43.1831 44.1371 42.8895 43.826 42.525 43.6037C40.338 42.4036 38.1307 41.5036 35.9032 40.9035C33.6757 40.3035 31.428 40.0034 29.16 40.0034C26.892 40.0034 24.6442 40.3035 22.4167 40.9035C20.1892 41.5036 17.982 42.4036 15.795 43.6037C15.4305 43.826 15.1368 44.1371 14.9141 44.5372C14.6913 44.9372 14.58 45.3817 14.58 45.8706V48.0041ZM29.16 26.669C30.4965 26.669 31.6406 26.1467 32.5923 25.1022C33.5441 24.0576 34.02 22.802 34.02 21.3352C34.02 19.8684 33.5441 18.6127 32.5923 17.5682C31.6406 16.5236 30.4965 16.0014 29.16 16.0014C27.8235 16.0014 26.6793 16.5236 25.7276 17.5682C24.7758 18.6127 24.3 19.8684 24.3 21.3352C24.3 22.802 24.7758 24.0576 25.7276 25.1022C26.6793 26.1467 27.8235 26.669 29.16 26.669Z" fill="white"/>
</svg>
