<svg width="57" height="57" viewBox="0 0 57 57" fill="none" xmlns="http://www.w3.org/2000/svg">
<path d="M19.7696 40.01L28.2423 31.5373L36.7151 40.01L40.01 36.7151L31.5373 28.2424L40.01 19.7697L36.7151 16.4747L28.2423 24.9474L19.7696 16.4747L16.4747 19.7697L24.9474 28.2424L16.4747 36.7151L19.7696 40.01ZM28.2423 51.7777C24.9866 51.7777 21.927 51.1599 19.0636 49.9243C16.2001 48.6887 13.7093 47.0118 11.5911 44.8936C9.47293 42.7754 7.79604 40.2846 6.56044 37.4211C5.32483 34.5577 4.70703 31.4981 4.70703 28.2424C4.70703 24.9867 5.32483 21.9271 6.56044 19.0636C7.79604 16.2001 9.47293 13.7093 11.5911 11.5911C13.7093 9.47296 16.2001 7.79607 19.0636 6.56047C21.927 5.32486 24.9866 4.70706 28.2423 4.70706C31.4981 4.70706 34.5577 5.32486 37.4211 6.56047C40.2846 7.79607 42.7754 9.47296 44.8936 11.5911C47.0118 13.7093 48.6886 16.2001 49.9242 19.0636C51.1599 21.9271 51.7777 24.9867 51.7777 28.2424C51.7777 31.4981 51.1599 34.5577 49.9242 37.4211C48.6886 40.2846 47.0118 42.7754 44.8936 44.8936C42.7754 47.0118 40.2846 48.6887 37.4211 49.9243C34.5577 51.1599 31.4981 51.7777 28.2423 51.7777ZM28.2423 47.0706C33.4986 47.0706 37.9507 45.2466 41.5986 41.5987C45.2466 37.9507 47.0706 33.4986 47.0706 28.2424C47.0706 22.9862 45.2466 18.5341 41.5986 14.8861C37.9507 11.2381 33.4986 9.41412 28.2423 9.41412C22.9861 9.41412 18.534 11.2381 14.8861 14.8861C11.2381 18.5341 9.41409 22.9862 9.41409 28.2424C9.41409 33.4986 11.2381 37.9507 14.8861 41.5987C18.534 45.2466 22.9861 47.0706 28.2423 47.0706Z" fill="#494B79"/>
</svg>
