<svg width="59" height="59" viewBox="0 0 59 59" fill="none" xmlns="http://www.w3.org/2000/svg">
  <path d="M12.19 7.29H46.81C48.1 7.29 49.34 7.8 50.25 8.71C51.16 9.62 51.67 10.86 51.67 12.15V46.81C51.67 48.1 51.16 49.34 50.25 50.25C49.34 51.16 48.1 51.67 46.81 51.67H12.19C10.9 51.67 9.66 51.16 8.75 50.25C7.84 49.34 7.33 48.1 7.33 46.81V12.15C7.33 10.86 7.84 9.62 8.75 8.71C9.66 7.8 10.9 7.29 12.19 7.29Z" stroke="white" stroke-width="5.1" stroke-linecap="round" stroke-linejoin="round"/>
  <path d="M20.26 20.26H38.74M20.26 29.5H38.74M20.26 38.74H30.52" stroke="white" stroke-width="5.1" stroke-linecap="round" stroke-linejoin="round"/>
</svg>
