<svg width="833" height="750" viewBox="0 0 833 750" fill="none" xmlns="http://www.w3.org/2000/svg">
<path d="M416.105 88.8227C636.228 88.8229 814.674 267.268 814.674 487.391C814.674 522.659 810.092 556.857 801.493 589.423C821.296 614.51 832.21 641.961 832.21 670.732C832.21 789.598 645.914 885.959 416.105 885.959L413.414 885.955C184.844 885.206 0 789.134 0 670.732C7.3321e-05 641.962 10.9129 614.509 30.7158 589.423C22.1168 556.857 17.5362 522.659 17.5361 487.391C17.5361 267.268 195.982 88.8227 416.105 88.8227Z" fill="#C5E6B9"/>
<path d="M153.535 556.144C153.535 556.144 206.597 605.631 247.589 603.17C284.253 600.97 329.041 556.144 329.041 556.144" stroke="#494B79" stroke-width="56.9681" stroke-linecap="round"/>
<path d="M503.168 556.144C503.168 556.144 556.23 605.631 597.222 603.17C633.886 600.97 678.674 556.144 678.674 556.144" stroke="#494B79" stroke-width="56.9681" stroke-linecap="round"/>
<path d="M356.731 664.51C356.731 664.51 392.632 713.997 420.368 711.536C445.175 709.336 475.479 664.51 475.479 664.51" stroke="#494B79" stroke-width="28.4841" stroke-linecap="round"/>
<line x1="109.329" y1="720.929" x2="165.749" y2="664.51" stroke="#E6B9C6" stroke-width="14.242" stroke-linecap="round"/>
<line x1="161.587" y1="720.929" x2="218.007" y2="664.51" stroke="#E6B9C6" stroke-width="14.242" stroke-linecap="round"/>
<line x1="222.522" y1="720.929" x2="278.942" y2="664.51" stroke="#E6B9C6" stroke-width="14.242" stroke-linecap="round"/>
<line x1="534.6" y1="720.929" x2="591.02" y2="664.51" stroke="#E6B9C6" stroke-width="14.242" stroke-linecap="round"/>
<line x1="586.858" y1="720.929" x2="643.278" y2="664.51" stroke="#E6B9C6" stroke-width="14.242" stroke-linecap="round"/>
<line x1="647.792" y1="720.929" x2="704.212" y2="664.51" stroke="#E6B9C6" stroke-width="14.242" stroke-linecap="round"/>
<path d="M503.423 82.3684C503.225 84.9013 501.836 87.1898 499.68 88.5338L459.225 113.751L506.752 117.469C509.126 117.655 511.286 118.888 512.654 120.817L512.916 121.213L538.135 161.668L541.852 114.142L541.903 113.669C542.227 111.326 543.575 109.237 545.596 107.977L586.051 82.7579L538.525 79.0412C535.992 78.8431 533.703 77.4533 532.359 75.2973L507.142 34.8419L503.423 82.3684Z" fill="#FFF2C4" stroke="#FFF2C4" stroke-width="10"/>
<path d="M620.761 162.059C618.859 163.742 616.269 164.423 613.785 163.891L596.973 160.293L608.367 173.168C609.946 174.952 610.642 177.339 610.284 179.678L610.199 180.145L606.602 196.957L619.476 185.562L619.841 185.258C621.702 183.798 624.124 183.232 626.453 183.73L643.266 187.328L631.871 174.453C630.187 172.551 629.507 169.961 630.039 167.476L633.637 150.664L620.761 162.059Z" fill="#FFF2C4" stroke="#FFF2C4" stroke-width="10"/>
<path d="M537.643 208.602C537.072 211.077 535.359 213.134 533.028 214.144L524.597 217.796L533.551 219.862C535.872 220.398 537.825 221.936 538.892 224.047L539.093 224.477L542.747 232.908L544.812 223.955C545.383 221.479 547.095 219.422 549.426 218.412L557.858 214.758L548.904 212.694C546.428 212.123 544.371 210.41 543.361 208.079L539.709 199.647L537.643 208.602Z" fill="#FFF2C4" stroke="#FFF2C4" stroke-width="10"/>
</svg>
