<svg width="833" height="793" viewBox="0 0 833 793" fill="none" xmlns="http://www.w3.org/2000/svg">
<mask id="path-1-inside-1_40_173" fill="white">
<path d="M416.105 140.553C636.229 140.553 814.674 318.998 814.674 539.121C814.674 574.389 810.092 608.587 801.493 641.153C821.296 666.24 832.21 693.691 832.21 722.462C832.21 841.328 645.914 937.689 416.105 937.689L413.414 937.685C184.844 936.936 0 840.864 0 722.462C7.3321e-05 693.692 10.9129 666.239 30.7158 641.153C22.1168 608.588 17.5362 574.389 17.5361 539.121C17.5361 318.998 195.982 140.553 416.105 140.553Z"/>
</mask>
<path d="M416.105 140.553C636.229 140.553 814.674 318.998 814.674 539.121C814.674 574.389 810.092 608.587 801.493 641.153C821.296 666.24 832.21 693.691 832.21 722.462C832.21 841.328 645.914 937.689 416.105 937.689L413.414 937.685C184.844 936.936 0 840.864 0 722.462C7.3321e-05 693.692 10.9129 666.239 30.7158 641.153C22.1168 608.588 17.5362 574.389 17.5361 539.121C17.5361 318.998 195.982 140.553 416.105 140.553Z" fill="#C5E6B9"/>
<path d="M416.105 140.553L416.105 120.553H416.105V140.553ZM814.674 539.121L834.674 539.121V539.121H814.674ZM801.493 641.153L782.156 636.047L779.606 645.705L785.795 653.546L801.493 641.153ZM832.21 722.462H852.21V722.462L832.21 722.462ZM416.105 937.689L416.069 957.689L416.087 957.689H416.105V937.689ZM413.414 937.685L413.349 957.684L413.363 957.684H413.378L413.414 937.685ZM0 722.462L-20 722.462V722.462H0ZM30.7158 641.153L46.414 653.545L52.6032 645.705L50.0531 636.047L30.7158 641.153ZM17.5361 539.121H-2.46387V539.121L17.5361 539.121ZM416.105 140.553L416.105 160.553C625.183 160.553 794.674 330.044 794.674 539.121H814.674H834.674C834.674 307.952 647.274 120.553 416.105 120.553L416.105 140.553ZM814.674 539.121L794.674 539.121C794.674 572.65 790.319 605.133 782.156 636.047L801.493 641.153L820.83 646.259C829.866 612.042 834.674 576.128 834.674 539.121L814.674 539.121ZM801.493 641.153L785.795 653.546C803.387 675.83 812.21 699.036 812.21 722.462L832.21 722.462L852.21 722.462C852.21 688.347 839.206 656.649 817.191 628.761L801.493 641.153ZM832.21 722.462H812.21C812.21 770.594 774.079 819.163 701.147 856.886C629.228 894.086 528.482 917.689 416.105 917.689V937.689V957.689C533.537 957.689 640.844 933.112 719.524 892.415C797.193 852.241 852.21 793.196 852.21 722.462H832.21ZM416.105 937.689L416.142 917.689L413.45 917.685L413.414 937.685L413.378 957.684L416.069 957.689L416.105 937.689ZM413.414 937.685L413.48 917.685C301.711 917.319 201.632 893.607 130.225 856.451C57.8245 818.779 20 770.405 20 722.462H0H-20C-20 792.921 34.5974 851.784 111.761 891.935C189.919 932.603 296.547 957.302 413.349 957.684L413.414 937.685ZM0 722.462L20 722.462C20.0001 699.035 28.8229 675.83 46.414 653.545L30.7158 641.153L15.0176 628.761C-6.99718 656.649 -19.9999 688.348 -20 722.462L0 722.462ZM30.7158 641.153L50.0531 636.047C41.8902 605.133 37.5362 572.651 37.5361 539.121L17.5361 539.121L-2.46387 539.121C-2.46384 576.128 2.34341 612.042 11.3786 646.259L30.7158 641.153ZM17.5361 539.121H37.5361C37.5361 330.044 207.028 160.553 416.105 160.553V140.553V120.553C184.937 120.553 -2.46387 307.952 -2.46387 539.121H17.5361Z" fill="#7EB46B" mask="url(#path-1-inside-1_40_173)"/>
<path d="M153.535 607.874C153.535 607.874 206.597 657.361 247.589 654.901C284.253 652.7 329.041 607.874 329.041 607.874" stroke="#7EB46B" stroke-width="56.9681" stroke-linecap="round"/>
<path d="M503.168 607.874C503.168 607.874 556.23 657.361 597.222 654.901C633.886 652.7 678.674 607.874 678.674 607.874" stroke="#7EB46B" stroke-width="56.9681" stroke-linecap="round"/>
<path d="M356.731 716.24C356.731 716.24 392.632 765.727 420.368 763.266C445.175 761.066 475.479 716.24 475.479 716.24" stroke="#7EB46B" stroke-width="28.4841" stroke-linecap="round"/>
<line x1="109.329" y1="772.66" x2="165.749" y2="716.24" stroke="#E6B9C6" stroke-width="14.242" stroke-linecap="round"/>
<line x1="161.587" y1="772.66" x2="218.007" y2="716.24" stroke="#E6B9C6" stroke-width="14.242" stroke-linecap="round"/>
<line x1="222.522" y1="772.66" x2="278.942" y2="716.24" stroke="#E6B9C6" stroke-width="14.242" stroke-linecap="round"/>
<line x1="534.6" y1="772.66" x2="591.02" y2="716.24" stroke="#E6B9C6" stroke-width="14.242" stroke-linecap="round"/>
<line x1="586.858" y1="772.66" x2="643.278" y2="716.24" stroke="#E6B9C6" stroke-width="14.242" stroke-linecap="round"/>
<line x1="647.792" y1="772.66" x2="704.212" y2="716.24" stroke="#E6B9C6" stroke-width="14.242" stroke-linecap="round"/>
<path d="M344.78 82.3684C344.582 84.9013 343.193 87.1898 341.037 88.5338L300.582 113.751L348.108 117.469C350.483 117.655 352.642 118.888 354.01 120.817L354.273 121.213L379.492 161.668L383.208 114.142L383.26 113.669C383.584 111.326 384.931 109.237 386.953 107.977L427.408 82.7579L379.882 79.0412C377.349 78.8431 375.06 77.4533 373.716 75.2973L348.499 34.8419L344.78 82.3684Z" fill="#FFF2C4" stroke="#FFF2C4" stroke-width="10"/>
<path d="M445.255 225.246C443.353 226.929 440.763 227.609 438.279 227.078L421.467 223.48L432.861 236.355C434.44 238.139 435.136 240.526 434.778 242.864L434.693 243.332L431.096 260.144L443.97 248.749L444.335 248.445C446.196 246.985 448.618 246.419 450.947 246.917L467.76 250.515L456.365 237.64C454.681 235.737 454.001 233.148 454.533 230.663L458.131 213.851L445.255 225.246Z" fill="#FFF2C4" stroke="#FFF2C4" stroke-width="10"/>
<path d="M193.546 327.408C192.975 329.883 191.263 331.94 188.932 332.95L180.501 336.603L189.454 338.669C191.775 339.204 193.728 340.743 194.796 342.854L194.997 343.283L198.651 351.714L200.715 342.761C201.286 340.286 202.999 338.229 205.33 337.219L213.762 333.564L204.807 331.5C202.332 330.929 200.275 329.217 199.265 326.886L195.612 318.453L193.546 327.408Z" fill="#FFF2C4" stroke="#FFF2C4" stroke-width="10"/>
<path d="M189.894 265.973C186.092 270.857 178.288 268.765 177.437 262.635L172.586 227.673L136.831 232.125C130.689 232.89 126.649 225.893 130.383 220.956L152.371 191.882L123.701 169.562C118.818 165.76 120.909 157.956 127.039 157.105L162.561 152.175L158.198 117.146C157.434 111.004 164.431 106.965 169.367 110.699L197.717 132.138L220.112 103.368C223.914 98.485 231.718 100.576 232.569 106.706L237.599 142.946L273.177 138.514C279.318 137.749 283.358 144.746 279.625 149.683L258.255 177.943L286.306 199.781C291.189 203.583 289.098 211.387 282.968 212.238L247.289 217.19L251.809 253.492C252.574 259.634 245.577 263.674 240.641 259.941L211.656 238.022L189.894 265.973Z" fill="#E4B9E6"/>
<circle cx="205.003" cy="185.319" r="25" transform="rotate(180 205.003 185.319)" fill="#FFF2C4"/>
<path d="M332.109 320.293C333.509 312.639 344.48 312.639 345.88 320.293L346.959 326.19C348.021 331.998 355.355 333.963 359.178 329.465L363.062 324.896C368.101 318.968 377.603 324.454 374.988 331.782L372.973 337.429C370.989 342.99 376.358 348.358 381.919 346.374L387.566 344.36C394.894 341.745 400.38 351.247 394.451 356.286L389.883 360.169C385.384 363.993 387.349 371.326 393.157 372.389L399.055 373.467C406.709 374.867 406.709 385.839 399.055 387.239L393.157 388.318C387.349 389.38 385.384 396.713 389.883 400.537L394.451 404.42C400.38 409.459 394.894 418.961 387.566 416.346L381.919 414.332C376.358 412.348 370.989 417.716 372.973 423.277L374.988 428.924C377.603 436.253 368.101 441.738 363.062 435.81L359.178 431.241C355.355 426.743 348.021 428.708 346.959 434.516L345.88 440.413C344.48 448.067 333.509 448.067 332.109 440.413L331.03 434.516C329.968 428.708 322.635 426.743 318.811 431.241L314.928 435.81C309.888 441.738 300.387 436.253 303.001 428.924L305.016 423.277C307 417.716 301.632 412.348 296.071 414.332L290.424 416.346C283.095 418.961 277.609 409.459 283.538 404.42L288.106 400.537C292.605 396.713 290.64 389.38 284.832 388.318L278.934 387.239C271.28 385.839 271.28 374.867 278.934 373.467L284.832 372.389C290.64 371.326 292.605 363.993 288.106 360.169L283.538 356.286C277.609 351.247 283.095 341.745 290.424 344.36L296.071 346.374C301.632 348.358 307 342.99 305.016 337.429L303.001 331.782C300.387 324.454 309.888 318.968 314.928 324.896L318.811 329.465C322.635 333.963 329.968 331.998 331.03 326.19L332.109 320.293Z" fill="#FFC4C4"/>
<circle cx="338.995" cy="380.353" r="25" fill="#FFF2C4"/>
<path d="M584.151 70.5832C585.98 63.6208 595.863 63.6208 597.692 70.5832L604.284 95.6838C605.461 100.163 610.585 102.286 614.585 99.9504L636.995 86.8631C643.211 83.2329 650.2 90.2217 646.57 96.4379L633.482 118.848C631.147 122.848 633.269 127.972 637.749 129.149L662.85 135.741C669.812 137.57 669.812 147.453 662.85 149.282L637.749 155.874C633.269 157.051 631.147 162.175 633.482 166.175L646.57 188.585C650.2 194.801 643.211 201.79 636.995 198.16L614.585 185.072C610.585 182.737 605.461 184.859 604.284 189.339L597.692 214.44C595.863 221.402 585.98 221.402 584.151 214.44L577.559 189.339C576.382 184.859 571.258 182.737 567.258 185.072L544.848 198.16C538.632 201.79 531.643 194.801 535.273 188.585L548.36 166.175C550.696 162.175 548.573 157.051 544.094 155.874L518.993 149.282C512.031 147.453 512.031 137.57 518.993 135.741L544.094 129.149C548.573 127.972 550.696 122.848 548.36 118.848L535.273 96.4379C531.643 90.2217 538.632 83.2329 544.848 86.8631L567.258 99.9504C571.258 102.286 576.382 100.163 577.559 95.6838L584.151 70.5832Z" fill="#B9E2E6"/>
<circle cx="590.921" cy="142.511" r="25" fill="#FFF2C4"/>
<path d="M686.001 285.354C689.803 280.47 697.607 282.561 698.458 288.691L703.31 323.653L739.065 319.201C745.207 318.437 749.247 325.434 745.514 330.37L723.524 359.444L752.194 381.765C757.078 385.567 754.987 393.371 748.856 394.222L713.334 399.151L717.697 434.181C718.462 440.322 711.466 444.362 706.529 440.629L678.18 419.189L655.783 447.958C651.981 452.841 644.177 450.75 643.326 444.62L638.296 408.381L602.719 412.813C596.577 413.577 592.537 406.58 596.27 401.644L617.641 373.384L589.59 351.546C584.707 347.744 586.797 339.94 592.928 339.089L628.607 334.137L624.087 297.834C623.322 291.692 630.318 287.653 635.255 291.386L664.239 313.306L686.001 285.354Z" fill="#E4B9E6"/>
<circle cx="670.892" cy="366.007" r="25" fill="#FFF2C4"/>
</svg>
