<svg width="89" height="30" viewBox="0 0 89 30" fill="none" xmlns="http://www.w3.org/2000/svg">
<path d="M7.43237 4.12466C7.43237 4.12466 15.116 11.2907 21.0518 10.9344C26.361 10.6157 32.8466 4.12466 32.8466 4.12466" stroke="white" stroke-width="8.24931" stroke-linecap="round"/>
<path d="M58.0613 4.12466C58.0613 4.12466 65.7449 11.2907 71.6807 10.9344C76.9899 10.6157 83.4755 4.12466 83.4755 4.12466" stroke="white" stroke-width="8.24931" stroke-linecap="round"/>
<path d="M36.8563 19.8167C36.8563 19.8167 42.055 26.9827 46.0713 26.6264C49.6635 26.3077 54.0517 19.8167 54.0517 19.8167" stroke="white" stroke-width="4.12465" stroke-linecap="round"/>
<line x1="1.03113" y1="27.9866" x2="9.20106" y2="19.8167" stroke="white" stroke-width="2.06233" stroke-linecap="round"/>
<line x1="8.59839" y1="27.9866" x2="16.7683" y2="19.8167" stroke="white" stroke-width="2.06233" stroke-linecap="round"/>
<line x1="17.422" y1="27.9866" x2="25.5919" y2="19.8167" stroke="white" stroke-width="2.06233" stroke-linecap="round"/>
<line x1="62.6128" y1="27.9866" x2="70.7827" y2="19.8167" stroke="white" stroke-width="2.06233" stroke-linecap="round"/>
<line x1="70.18" y1="27.9866" x2="78.3499" y2="19.8167" stroke="white" stroke-width="2.06233" stroke-linecap="round"/>
<line x1="79.0037" y1="27.9866" x2="87.1737" y2="19.8167" stroke="white" stroke-width="2.06233" stroke-linecap="round"/>
</svg>
