<svg width="588" height="56" viewBox="0 0 588 56" fill="none" xmlns="http://www.w3.org/2000/svg">
<path d="M29.0595 40.0455C28.4689 40.0455 27.9964 39.9864 27.642 39.8683C25.7519 39.3958 24.3934 38.687 23.5665 37.742C22.8578 36.6788 22.3853 35.8519 22.149 35.2613C21.3221 32.6625 21.6174 30.0046 23.035 27.2876C24.4525 24.4526 26.2835 21.4994 28.5279 18.428C29.2367 17.483 29.8864 16.4789 30.4771 15.4157C31.1858 14.2345 31.7765 13.2304 32.249 12.4035C32.3671 12.2853 32.5443 12.0491 32.7806 11.6947C32.0718 11.931 31.1858 12.2853 30.1227 12.7579C29.1776 13.2304 28.0554 13.9391 26.756 14.8842C24.6297 16.1836 22.3853 17.8964 20.0227 20.0228C17.6601 22.0309 15.2385 24.1572 12.7578 26.4017C12.1672 26.8742 11.5175 27.4058 10.8087 27.9964C10.2181 28.5871 9.62741 29.1777 9.03677 29.7683C7.97361 30.7134 6.73327 31.1859 5.31573 31.1859C3.78006 31.0677 2.53971 30.418 1.59469 29.2368C0.531532 28.1736 0.059019 26.9333 0.177147 25.5157C0.295276 23.98 0.885917 22.7397 1.94907 21.7947C2.53971 21.204 3.18942 20.6134 3.89819 20.0228C4.48883 19.4321 5.07947 18.9005 5.67011 18.428C9.45022 15.0023 13.1713 11.8719 16.8332 9.03682C20.4952 6.08361 24.0981 3.83918 27.642 2.30351C31.1858 0.767839 34.6115 0.472519 37.9191 1.41755C39.9273 1.89006 41.3449 2.71696 42.1718 3.89824C43.1168 4.9614 43.6484 5.90642 43.7665 6.73332C44.8296 9.33214 44.5934 12.1082 43.0577 15.0614C41.522 17.8964 39.5729 21.0268 37.2104 24.4526C36.9741 24.6888 36.6788 25.1023 36.3244 25.6929C36.0881 26.1654 35.7928 26.6379 35.4384 27.1104C37.2104 26.4017 39.5139 25.5157 42.3489 24.4526C45.184 23.3894 48.6097 22.09 52.6261 20.5543C54.1618 20.0818 55.5793 20.1999 56.8787 20.9087C58.1781 21.4994 59.0641 22.5034 59.5366 23.921C60.1272 25.2204 60.0682 26.5789 59.3594 27.9964C58.7688 29.2958 57.8237 30.2408 56.5243 30.8315C52.7442 32.1309 49.3185 33.3122 46.2472 34.3753C43.1758 35.4385 40.577 36.3835 38.4507 37.2104C37.2694 37.6829 36.2063 38.0964 35.2612 38.4508C34.4343 38.687 33.6665 38.9233 32.9577 39.1595C32.1308 39.3958 31.4221 39.632 30.8314 39.8683C30.2408 39.9864 29.6502 40.0455 29.0595 40.0455ZM68.4654 55.4612C67.6385 55.4612 66.8116 55.3431 65.9847 55.1069C65.1579 54.9887 64.331 54.8706 63.5041 54.7525C61.3777 54.1618 59.9011 52.9215 59.0742 51.0314C58.0111 48.6689 58.0111 45.8338 59.0742 42.5262C60.2555 39.1005 62.1456 34.7297 64.7444 29.4139C65.2169 28.4689 65.6894 27.4058 66.1619 26.2245C66.7526 25.0432 67.2842 23.921 67.7567 22.8578C66.221 23.4485 64.5672 24.4526 62.7953 25.8701C61.1415 27.1695 59.4286 28.528 57.6567 29.9455C56.4754 30.7724 55.176 31.1268 53.7585 31.0087C52.2228 30.7724 50.9825 30.1227 50.0374 29.0596C49.2105 27.8783 48.9152 26.5789 49.1515 25.1613C49.2696 23.7438 49.8602 22.5034 50.9234 21.4403C52.5772 20.259 54.2901 18.9596 56.062 17.5421C57.952 16.1245 59.8421 14.9432 61.7321 13.9982C66.5754 11.5175 71.0052 10.8678 75.0216 12.0491C76.9116 12.4035 78.3292 13.5848 79.2742 15.5929C80.2192 17.483 80.1601 19.8456 79.097 22.6806C78.152 25.5157 76.4982 29.3549 74.1356 34.1981C73.545 35.6157 72.8953 37.0332 72.1865 38.4508C71.5958 39.8683 71.0052 41.2268 70.4146 42.5262C70.2964 42.9987 70.1192 43.4122 69.883 43.7665C69.7649 44.1209 69.6467 44.4753 69.5286 44.8297C72.0093 44.4753 75.6122 43.235 80.3373 41.1086C85.1806 38.8642 91.6777 34.4935 99.8285 27.9964C104.199 24.5707 108.157 21.2631 111.7 18.0736C115.244 14.766 118.079 12.0491 120.206 9.92278C122.332 7.79647 123.395 6.73332 123.395 6.73332C124.813 5.07952 126.525 4.54795 128.534 5.13859C129.479 5.25671 130.247 5.67016 130.837 6.37893C131.428 6.96958 131.9 7.56022 132.255 8.15086C133.082 9.80465 133.141 11.7538 132.432 13.9982C131.841 16.1245 130.542 19.6093 128.534 24.4526C127.825 25.9882 127.116 27.5239 126.407 29.0596C125.817 30.5952 125.226 32.0128 124.635 33.3122C124.517 33.7847 124.399 34.1981 124.281 34.5525C124.281 34.7888 124.222 35.025 124.104 35.2613C126.348 34.9069 128.711 33.9619 131.192 32.4262C133.79 30.7724 136.271 28.9414 138.634 26.9333C141.114 24.9251 143.182 23.2122 144.835 21.7947C146.017 20.7315 147.316 20.259 148.734 20.3771C150.151 20.4953 151.391 21.0859 152.455 22.1491C153.4 23.3303 153.813 24.6298 153.695 26.0473C153.695 27.4648 153.104 28.7052 151.923 29.7683C148.261 32.9578 144.481 35.9701 140.583 38.8051C136.803 41.6402 132.963 43.7665 129.065 45.1841C125.285 46.4835 121.446 46.6607 117.548 45.7157C115.658 44.8888 114.299 43.7075 113.472 42.1718C112.764 40.518 112.527 38.687 112.764 36.6788C113.118 34.6707 113.827 32.19 114.89 29.2368C113.59 30.418 112.232 31.5403 110.814 32.6034C109.515 33.6666 108.097 34.8478 106.562 36.1473C90.2601 49.0232 77.5613 55.4612 68.4654 55.4612ZM188.996 45.3613C187.579 45.3613 186.398 44.9478 185.453 44.1209C183.563 42.5853 183.031 40.6361 183.858 38.2736C183.858 38.1554 184.271 36.7379 185.098 34.021C186.043 31.304 187.106 28.2327 188.288 24.8069C188.878 22.7988 189.41 21.0859 189.882 19.6684C190.355 18.1327 190.768 16.7742 191.123 15.5929C187.933 16.7742 184.035 18.2508 179.428 20.0228C174.821 21.6765 169.978 23.4485 164.898 25.3385C159.937 27.2286 155.094 29.0596 150.368 30.8315C149.069 31.304 147.77 31.2449 146.47 30.6543C145.053 29.9455 144.049 28.8824 143.458 27.4648C142.985 26.1654 143.104 24.866 143.812 23.5666C144.403 22.1491 145.407 21.145 146.825 20.5543C152.14 18.6643 157.633 16.7152 163.304 14.707C168.974 12.5807 174.23 10.6316 179.074 8.85963C183.917 6.96958 187.874 5.43391 190.946 4.25263C194.017 3.07134 195.553 2.4807 195.553 2.4807C196.143 2.36257 196.734 2.30351 197.324 2.30351C197.915 2.18538 198.447 2.24444 198.919 2.4807C200.573 2.71696 201.754 3.66198 202.463 5.31578C203.054 6.26081 203.29 7.50115 203.172 9.03682C203.172 10.4544 202.877 12.5216 202.286 15.2386C201.931 16.7742 201.459 18.4871 200.868 20.3771C200.396 22.1491 199.746 24.2163 198.919 26.5789C198.801 27.0514 198.683 27.4648 198.565 27.8192C198.447 28.1736 198.329 28.5871 198.21 29.0596C202.936 26.4607 208.724 23.7438 215.575 20.9087C216.875 20.3181 218.174 20.3181 219.474 20.9087C220.891 21.3812 221.836 22.2672 222.309 23.5666C223.017 24.866 223.076 26.2245 222.486 27.642C221.895 29.0596 220.95 30.0637 219.651 30.6543C214.335 33.0169 209.551 35.2613 205.298 37.3876C201.164 39.5139 197.856 41.2268 195.375 42.5262C192.895 43.8256 191.654 44.4753 191.654 44.4753C190.946 45.0659 190.06 45.3613 188.996 45.3613ZM257.866 45.3613C256.449 45.3613 255.267 44.9478 254.322 44.1209C252.432 42.5853 251.901 40.6361 252.728 38.2736C252.728 38.1554 253.141 36.7379 253.968 34.021C254.913 31.304 255.976 28.2327 257.157 24.8069C257.748 22.7988 258.28 21.0859 258.752 19.6684C259.225 18.1327 259.638 16.7742 259.992 15.5929C256.803 16.7742 252.905 18.2508 248.298 20.0228C243.691 21.6765 238.847 23.4485 233.768 25.3385C228.807 27.2286 223.963 29.0596 219.238 30.8315C217.939 31.304 216.639 31.2449 215.34 30.6543C213.922 29.9455 212.918 28.8824 212.328 27.4648C211.855 26.1654 211.973 24.866 212.682 23.5666C213.273 22.1491 214.277 21.145 215.694 20.5543C221.01 18.6643 226.503 16.7152 232.173 14.707C237.843 12.5807 243.1 10.6316 247.943 8.85963C252.787 6.96958 256.744 5.43391 259.815 4.25263C262.887 3.07134 264.422 2.4807 264.422 2.4807C265.013 2.36257 265.604 2.30351 266.194 2.30351C266.785 2.18538 267.316 2.24444 267.789 2.4807C269.443 2.71696 270.624 3.66198 271.333 5.31578C271.923 6.26081 272.16 7.50115 272.042 9.03682C272.042 10.4544 271.746 12.5216 271.156 15.2386C270.801 16.7742 270.329 18.4871 269.738 20.3771C269.266 22.1491 268.616 24.2163 267.789 26.5789C267.671 27.0514 267.553 27.4648 267.435 27.8192C267.316 28.1736 267.198 28.5871 267.08 29.0596C271.805 26.4607 277.594 23.7438 284.445 20.9087C285.744 20.3181 287.044 20.3181 288.343 20.9087C289.761 21.3812 290.706 22.2672 291.178 23.5666C291.887 24.866 291.946 26.2245 291.356 27.642C290.765 29.0596 289.82 30.0637 288.52 30.6543C283.205 33.0169 278.42 35.2613 274.168 37.3876C270.033 39.5139 266.726 41.2268 264.245 42.5262C261.764 43.8256 260.524 44.4753 260.524 44.4753C259.815 45.0659 258.929 45.3613 257.866 45.3613ZM309.903 40.0455C309.312 40.0455 308.839 39.9864 308.485 39.8683C306.595 39.3958 305.236 38.687 304.41 37.742C303.701 36.6788 303.228 35.8519 302.992 35.2613C302.165 32.6625 302.46 30.0046 303.878 27.2876C305.296 24.4526 307.127 21.4994 309.371 18.428C310.08 17.483 310.729 16.4789 311.32 15.4157C312.029 14.2345 312.62 13.2304 313.092 12.4035C313.21 12.2853 313.387 12.0491 313.624 11.6947C312.915 11.931 312.029 12.2853 310.966 12.7579C310.021 13.2304 308.898 13.9391 307.599 14.8842C305.473 16.1836 303.228 17.8964 300.866 20.0228C298.503 22.0309 296.082 24.1572 293.601 26.4017C293.01 26.8742 292.361 27.4058 291.652 27.9964C291.061 28.5871 290.47 29.1777 289.88 29.7683C288.817 30.7134 287.576 31.1859 286.159 31.1859C284.623 31.0677 283.383 30.418 282.438 29.2368C281.375 28.1736 280.902 26.9333 281.02 25.5157C281.138 23.98 281.729 22.7397 282.792 21.7947C283.383 21.204 284.032 20.6134 284.741 20.0228C285.332 19.4321 285.923 18.9005 286.513 18.428C290.293 15.0023 294.014 11.8719 297.676 9.03682C301.338 6.08361 304.941 3.83918 308.485 2.30351C312.029 0.767839 315.455 0.472519 318.762 1.41755C320.77 1.89006 322.188 2.71696 323.015 3.89824C323.96 4.9614 324.491 5.90642 324.61 6.73332C325.673 9.33214 325.436 12.1082 323.901 15.0614C322.365 17.8964 320.416 21.0268 318.053 24.4526C317.817 24.6888 317.522 25.1023 317.167 25.6929C316.931 26.1654 316.636 26.6379 316.281 27.1104C318.053 26.4017 320.357 25.5157 323.192 24.4526C326.027 23.3894 329.453 22.09 333.469 20.5543C335.005 20.0818 336.422 20.1999 337.722 20.9087C339.021 21.4994 339.907 22.5034 340.38 23.921C340.97 25.2204 340.911 26.5789 340.202 27.9964C339.612 29.2958 338.667 30.2408 337.367 30.8315C333.587 32.1309 330.162 33.3122 327.09 34.3753C324.019 35.4385 321.42 36.3835 319.294 37.2104C318.112 37.6829 317.049 38.0964 316.104 38.4508C315.277 38.687 314.51 38.9233 313.801 39.1595C312.974 39.3958 312.265 39.632 311.674 39.8683C311.084 39.9864 310.493 40.0455 309.903 40.0455ZM358.7 40.0455C358.109 40.0455 357.637 39.9864 357.282 39.8683C355.392 39.3958 354.034 38.687 353.207 37.742C352.498 36.6788 352.025 35.8519 351.789 35.2613C350.962 32.6625 351.258 30.0046 352.675 27.2876C354.093 24.4526 355.924 21.4994 358.168 18.428C358.877 17.483 359.527 16.4789 360.117 15.4157C360.826 14.2345 361.417 13.2304 361.889 12.4035C362.007 12.2853 362.184 12.0491 362.421 11.6947C361.712 11.931 360.826 12.2853 359.763 12.7579C358.818 13.2304 357.696 13.9391 356.396 14.8842C354.27 16.1836 352.025 17.8964 349.663 20.0228C347.3 22.0309 344.879 24.1572 342.398 26.4017C341.807 26.8742 341.158 27.4058 340.449 27.9964C339.858 28.5871 339.268 29.1777 338.677 29.7683C337.614 30.7134 336.373 31.1859 334.956 31.1859C333.42 31.0677 332.18 30.418 331.235 29.2368C330.172 28.1736 329.699 26.9333 329.817 25.5157C329.935 23.98 330.526 22.7397 331.589 21.7947C332.18 21.204 332.83 20.6134 333.538 20.0228C334.129 19.4321 334.72 18.9005 335.31 18.428C339.09 15.0023 342.811 11.8719 346.473 9.03682C350.135 6.08361 353.738 3.83918 357.282 2.30351C360.826 0.767839 364.252 0.472519 367.559 1.41755C369.568 1.89006 370.985 2.71696 371.812 3.89824C372.757 4.9614 373.289 5.90642 373.407 6.73332C374.47 9.33214 374.234 12.1082 372.698 15.0614C371.162 17.8964 369.213 21.0268 366.851 24.4526C366.614 24.6888 366.319 25.1023 365.965 25.6929C365.728 26.1654 365.433 26.6379 365.079 27.1104C366.851 26.4017 369.154 25.5157 371.989 24.4526C374.824 23.3894 378.25 22.09 382.266 20.5543C383.802 20.0818 385.22 20.1999 386.519 20.9087C387.818 21.4994 388.704 22.5034 389.177 23.921C389.767 25.2204 389.708 26.5789 389 27.9964C388.409 29.2958 387.464 30.2408 386.165 30.8315C382.384 32.1309 378.959 33.3122 375.887 34.3753C372.816 35.4385 370.217 36.3835 368.091 37.2104C366.91 37.6829 365.846 38.0964 364.901 38.4508C364.075 38.687 363.307 38.9233 362.598 39.1595C361.771 39.3958 361.062 39.632 360.472 39.8683C359.881 39.9864 359.29 40.0455 358.7 40.0455ZM398.106 55.4612C397.279 55.4612 396.452 55.3431 395.625 55.1069C394.798 54.9887 393.971 54.8706 393.144 54.7525C391.018 54.1618 389.541 52.9215 388.714 51.0314C387.651 48.6689 387.651 45.8338 388.714 42.5262C389.896 39.1005 391.786 34.7297 394.385 29.4139C394.857 28.4689 395.33 27.4058 395.802 26.2245C396.393 25.0432 396.924 23.921 397.397 22.8578C395.861 23.4485 394.207 24.4526 392.435 25.8701C390.782 27.1695 389.069 28.528 387.297 29.9455C386.116 30.7724 384.816 31.1268 383.399 31.0087C381.863 30.7724 380.623 30.1227 379.678 29.0596C378.851 27.8783 378.555 26.5789 378.792 25.1613C378.91 23.7438 379.5 22.5034 380.564 21.4403C382.217 20.259 383.93 18.9596 385.702 17.5421C387.592 16.1245 389.482 14.9432 391.372 13.9982C396.216 11.5175 400.645 10.8678 404.662 12.0491C406.552 12.4035 407.969 13.5848 408.914 15.5929C409.859 17.483 409.8 19.8456 408.737 22.6806C407.792 25.5157 406.138 29.3549 403.776 34.1981C403.185 35.6157 402.535 37.0332 401.827 38.4508C401.236 39.8683 400.645 41.2268 400.055 42.5262C399.937 42.9987 399.759 43.4122 399.523 43.7665C399.405 44.1209 399.287 44.4753 399.169 44.8297C401.649 44.4753 405.252 43.235 409.978 41.1086C414.821 38.8642 421.318 34.4935 429.469 27.9964C433.839 24.5707 437.797 21.2631 441.341 18.0736C444.884 14.766 447.72 12.0491 449.846 9.92278C451.972 7.79647 453.035 6.73332 453.035 6.73332C454.453 5.07952 456.166 4.54795 458.174 5.13859C459.119 5.25671 459.887 5.67016 460.477 6.37893C461.068 6.96958 461.541 7.56022 461.895 8.15086C462.722 9.80465 462.781 11.7538 462.072 13.9982C461.481 16.1245 460.182 19.6093 458.174 24.4526C457.465 25.9882 456.756 27.5239 456.048 29.0596C455.457 30.5952 454.866 32.0128 454.276 33.3122C454.158 33.7847 454.039 34.1981 453.921 34.5525C453.921 34.7888 453.862 35.025 453.744 35.2613C455.988 34.9069 458.351 33.9619 460.832 32.4262C463.431 30.7724 465.911 28.9414 468.274 26.9333C470.755 24.9251 472.822 23.2122 474.476 21.7947C475.657 20.7315 476.956 20.259 478.374 20.3771C479.791 20.4953 481.032 21.0859 482.095 22.1491C483.04 23.3303 483.453 24.6298 483.335 26.0473C483.335 27.4648 482.745 28.7052 481.563 29.7683C477.901 32.9578 474.121 35.9701 470.223 38.8051C466.443 41.6402 462.604 43.7665 458.705 45.1841C454.925 46.4835 451.086 46.6607 447.188 45.7157C445.298 44.8888 443.939 43.7075 443.113 42.1718C442.404 40.518 442.167 38.687 442.404 36.6788C442.758 34.6707 443.467 32.19 444.53 29.2368C443.231 30.418 441.872 31.5403 440.455 32.6034C439.155 33.6666 437.738 34.8478 436.202 36.1473C419.9 49.0232 407.202 55.4612 398.106 55.4612ZM540.431 43.5893C539.604 43.5893 538.837 43.4712 538.128 43.235C535.883 42.7624 534.289 41.404 533.344 39.1595C532.635 37.1514 532.812 34.9069 533.875 32.4262C535.056 29.9455 536.592 27.1695 538.482 24.0982C539.191 23.035 539.841 21.9719 540.431 20.9087C541.14 19.7274 541.731 18.6643 542.203 17.7193C542.439 17.3649 542.617 17.0695 542.735 16.8333C542.853 16.4789 542.971 16.1836 543.089 15.9473C539.545 15.3567 535.411 15.2386 530.686 15.5929C526.079 15.8292 520.881 16.7152 515.093 18.2508C510.013 19.5502 504.52 21.2631 498.614 23.3894C492.826 25.3976 486.683 27.8192 480.186 30.6543C478.886 31.1268 477.587 31.1268 476.288 30.6543C474.988 30.1818 474.043 29.2958 473.453 27.9964C472.744 26.697 472.685 25.3385 473.275 23.921C473.866 22.3853 474.811 21.3812 476.11 20.9087C482.726 17.9555 489.045 15.4157 495.07 13.2894C501.213 11.045 507.001 9.27308 512.435 7.97367C526.965 4.31169 538.837 3.72105 548.051 6.20174C550.768 6.91051 552.658 8.56431 553.721 11.1631C554.784 13.762 554.548 16.6561 553.012 19.8456C551.476 23.035 549.645 26.3426 547.519 29.7683C547.401 30.0046 547.224 30.2999 546.987 30.6543C546.751 31.0087 546.515 31.4221 546.279 31.8946C548.996 31.304 553.012 30.1227 558.328 28.3508C563.644 26.5789 570.967 23.98 580.3 20.5543C581.599 20.0818 582.898 20.1999 584.198 20.9087C585.615 21.4994 586.56 22.5034 587.033 23.921C587.624 25.2204 587.624 26.5789 587.033 27.9964C586.442 29.2958 585.379 30.2408 583.843 30.8315C578.41 32.7215 573.448 34.4344 568.959 35.9701C564.47 37.5057 560.454 38.8051 556.91 39.8683C552.185 41.2858 548.582 42.2899 546.101 42.8806C543.621 43.3531 541.731 43.5893 540.431 43.5893Z" fill="#494B79"/>
</svg>
