<svg width="506" height="243" viewBox="0 0 506 243" fill="none" xmlns="http://www.w3.org/2000/svg">
<g filter="url(#filter0_g_9_220)">
<path d="M300.978 13.9921C302.719 13.9921 304.301 14.1079 305.696 14.3651L306.282 14.4843L306.307 14.4901C310.902 15.5622 314.554 17.5206 316.507 20.7811C317.816 22.7122 318.696 25.0434 319.215 27.7059C320.269 27.1623 321.339 26.6364 322.427 26.1288C324.711 25.063 327.136 24.1543 329.699 23.4003C349.809 17.4415 368.112 19.7301 384.368 30.4169L384.409 30.4442C389.997 34.2758 393.834 40.9954 396.23 50.0585L396.457 50.9432L396.479 51.0302L396.494 51.119C397.508 56.9111 398.378 62.6328 399.103 68.2841C399.974 73.9489 400.7 79.6856 401.281 85.493C402.01 92.787 402.375 100.012 402.375 107.166C402.518 114.234 402.447 121.371 402.16 128.579C402.591 137.489 401.187 144.986 397.696 150.858L397.695 150.857C394.593 156.281 388.011 158.834 379.299 159.43C373.879 159.904 369.067 158.706 365.048 155.692L364.829 155.527L364.651 155.319C362.53 152.845 360.902 148.841 359.583 143.711L359.574 143.679L359.567 143.645C358.392 138.505 357.441 133.012 356.71 127.168C355.985 121.37 355.405 115.927 354.969 110.842L354.965 110.804L354.963 110.766C354.676 105.6 354.461 101.945 354.318 99.7919C353.885 95.4637 353.453 90.7788 353.021 85.7382L353.018 85.7011L353.016 85.6639C352.739 80.6852 351.845 76.3378 350.372 72.5897L350.366 72.5751L350.362 72.5614C348.945 68.8261 346.733 66.0145 343.738 64.0175L343.717 64.0038L343.697 63.9891C341.189 62.2451 337.193 61.57 331.187 62.6444C329.647 63.0736 328.438 63.9347 327.488 65.3075L327.401 65.4325L327.3 65.5458C327.048 65.8298 326.697 66.4173 326.356 67.5018C326.022 68.5645 325.74 69.9664 325.534 71.745C325.112 75.4034 324.829 79.356 324.686 83.6044C324.686 87.7498 324.758 91.6761 324.901 95.3837C325.045 99.1278 325.118 101.7 325.118 103.054V119.067C325.118 120.854 325.044 123.423 324.9 126.751V126.756C324.75 130.039 324.378 133.457 323.786 137.008C323.179 140.655 322.187 144.094 320.805 147.319C319.489 150.723 317.436 153.376 314.538 155.006L314.529 155.012L314.518 155.017C311.377 156.745 308.169 157.801 304.906 158.128L304.847 158.134L304.788 158.137C301.736 158.297 298.444 157.892 294.937 156.977V156.976C290.89 156.031 287.621 154.285 285.698 151.4L285.664 151.35L285.634 151.3C284.156 148.837 283.066 145.82 282.305 142.321L282.292 142.264L282.283 142.205C279.959 128.41 278.434 114.754 277.707 101.24L277.705 101.213C277.126 87.5977 276.981 73.8389 277.271 59.9374C277.272 56.5996 277.345 53.1913 277.49 49.7138C277.635 46.2169 277.853 42.7201 278.145 39.2235C278.278 37.6239 278.277 36.1099 278.147 34.6796L278.136 34.5673V34.454C278.136 32.5836 278.292 30.774 278.61 29.0292C278.941 27.2092 279.521 25.4679 280.348 23.8134C281.255 21.856 282.657 20.1464 284.463 18.6688C285.898 17.4303 287.624 16.5044 289.583 15.8514C291.433 15.2347 293.292 14.7697 295.158 14.4589L295.172 14.4559L295.188 14.454C297.177 14.1479 299.108 13.9921 300.978 13.9921Z" fill="#C5E6B9" stroke="#C5E6B9" stroke-width="5"/>
<path d="M175.267 14.499C182.717 12.6014 191.144 12.0691 200.509 12.8418L201.418 12.9199L201.426 12.9209C206.138 13.3627 210.513 14.1006 214.543 15.1426C218.412 15.9743 221.984 17.0052 225.254 18.2412L225.907 18.4922L225.93 18.501L225.951 18.5098C232.945 21.3984 239.417 26.0056 245.379 32.2558C250.734 37.324 254.353 43.4142 256.197 50.4853C258.034 57.5269 258.036 64.5892 256.203 71.6308L256.204 71.6318C255.447 74.6598 254.457 77.4846 253.228 80.0976L253.215 80.124L253.201 80.1514C251.936 82.6818 250.22 85.1652 248.086 87.6045L247.996 87.706L247.897 87.7978C243.867 91.5047 238.226 94.1039 231.192 95.75L231.191 95.749C224.419 97.3678 217.223 98.4689 209.607 99.0547L209.606 99.0537C202.189 99.6353 194.984 99.9267 187.991 99.9267H174.638C174.613 102.662 174.734 104.975 174.995 106.88C175.332 109.34 175.873 110.931 176.459 111.869L176.964 112.627C179.41 116.171 181.924 118.053 184.421 118.734L184.68 118.801L184.689 118.803C190.167 120.139 195.714 120.012 201.371 118.395L201.401 118.387L201.432 118.379C209.172 116.377 216.847 111.254 224.423 102.695L224.451 102.663L224.481 102.633C227.66 99.2765 231.938 97.7954 236.98 97.958H236.979C241.4 97.9712 245.384 99.0852 248.835 101.37C251.142 102.708 252.955 104.496 254.189 106.741C255.515 108.761 256.34 111.015 256.678 113.47C257.143 115.844 257.223 118.227 256.915 120.609C256.761 122.862 256.459 124.989 255.998 126.987L255.993 127.01L255.987 127.031C254.779 131.865 253.022 136.101 250.679 139.693L250.665 139.715L250.65 139.736C248.25 143.257 244.802 146.283 240.43 148.861C233.715 153.621 226.779 156.726 219.624 158.096L219.623 158.095C212.813 159.426 205.512 160.088 197.73 160.088H197.694L197.659 160.087C182.209 159.65 169.732 157.462 160.376 153.388L160.362 153.382C151.179 149.317 144.127 143.533 139.352 135.985L139.32 135.935C134.754 128.324 132.073 119.134 131.183 108.455L131.181 108.437L131.18 108.418C130.448 97.7289 130.67 85.6222 131.832 72.1103L131.84 72.0342C133.157 60.7649 135.515 51.4528 138.993 44.1933L138.998 44.1846L139.003 44.1748C142.483 37.0639 147.397 30.8728 153.714 25.6084C160.193 20.1853 167.382 16.4701 175.267 14.499ZM202 47.5088C200.122 47.1332 198.08 47.0628 195.857 47.3242L195.712 47.3408H195.298C192.067 47.7453 189.206 48.7152 186.681 50.2305L186.664 50.2412L186.648 50.251C184.169 51.6861 182.293 53.3309 180.945 55.1562C179.848 56.8082 179.319 57.8964 179.143 58.5117C178.884 59.4153 178.692 60.3141 178.564 61.208C178.42 62.2179 178.275 63.2284 178.131 64.2383C178.122 64.2994 178.116 64.3584 178.109 64.415C181.716 65.1197 186.499 65.4945 192.521 65.4951C198.866 65.3625 205.737 64.387 213.144 62.5478C213.197 60.6586 212.85 58.7511 212.071 56.8056L212.059 56.7744L212.047 56.7422C211.172 54.3685 209.798 52.2298 207.893 50.3164C205.897 48.4545 204.054 47.6533 202.344 47.5527L202.171 47.543L202 47.5088Z" fill="#C5E6B9" stroke="#C5E6B9" stroke-width="5"/>
<path d="M55.542 15.7276C60.9154 15.2939 66.0848 15.1479 71.0488 15.291V15.2901C75.9672 15.2901 79.8397 15.3632 82.6455 15.5108C88.3624 15.8039 93.5982 16.3915 98.3438 17.2813C103.201 18.1921 107.277 19.818 110.419 22.2822C113.87 24.8708 115.907 28.4998 116.578 32.96C117.405 37.4928 116.441 43.1715 114.088 49.7901L114.033 49.9453L113.958 50.0928C110.982 55.9033 108.765 59.9134 107.354 61.9736C106.221 63.892 102.2 69.8818 95.4004 79.7979L95.3906 79.8115C89.0275 88.9585 80.0499 101.687 68.4648 117.999C69.4292 117.899 70.4907 117.788 71.6484 117.664C75.7554 117.224 80.0735 116.931 84.6016 116.785C89.1648 116.638 93.525 116.784 97.6797 117.228C101.877 117.533 105.404 118.453 107.847 120.332L107.89 120.365L107.931 120.399C111.793 123.644 114.311 127.257 114.859 131.281C115.346 134.85 115.006 138.854 113.946 143.242L113.944 143.252L113.941 143.262C112.686 148.283 110.252 152.1 106.226 153.826L106.179 153.847L106.131 153.864C102.94 155.08 99.3354 156.052 95.333 156.794L95.334 156.795C87.8556 158.261 80.4428 159.143 73.0967 159.437C65.8493 159.726 58.53 159.871 51.1396 159.871H40.4893L40.4434 159.869C36.3593 159.718 32.4123 159.112 28.6084 158.047L28.5957 158.044L28.583 158.04C24.7888 156.933 21.3762 155.109 18.3672 152.575L18.3418 152.554L18.3164 152.531C15.1733 149.737 13.3171 145.756 12.5322 140.89L12.5 140.692V140.491C12.5 137.892 12.7298 135.229 13.1836 132.507L13.1895 132.467L13.1982 132.427C13.6935 129.951 14.9551 126.701 16.8438 122.775C18.7453 118.68 20.8641 114.517 23.1982 110.286L23.2119 110.261C25.6832 105.9 28.0869 101.893 30.4229 98.2432L30.4297 98.2334L30.4365 98.2227C32.8893 94.4713 34.6977 91.7225 35.8584 89.9815L35.9014 89.919C40.5474 83.3854 45.3398 77.0683 50.2783 70.9678C53.7377 66.6944 57.2337 62.4217 60.7646 58.1485C57.4765 58.6195 54.1878 58.9823 50.8984 59.2354L50.8506 59.2393L50.8027 59.2412C46.9556 59.3892 43.1083 59.3154 39.2617 59.0195L39.1943 59.0147L39.126 59.0049C31.3138 57.9731 25.1662 55.9458 21.0391 52.6563V52.6572C17.6253 50.002 16.0576 45.6054 15.75 40.2227L15.7461 40.1514V40.0801C15.7461 36.4712 16.6526 32.9734 18.4121 29.6143L18.4561 29.5303L18.5068 29.4492C20.9044 25.6134 24.0697 22.7476 27.9951 20.9414C31.061 19.3474 35.071 18.2246 39.9062 17.4893C44.9087 16.6074 50.1211 16.0208 55.542 15.7276Z" fill="#C5E6B9" stroke="#C5E6B9" stroke-width="5"/>
</g>
<path d="M446.195 140.251C451.041 139.018 456.395 138.668 462.19 139.097L463.356 139.194L463.37 139.195C466.38 139.477 469.214 139.952 471.861 140.631C474.52 141.205 477.003 141.932 479.294 142.829L479.338 142.845L479.381 142.863C484.146 144.831 488.473 147.931 492.382 152.011C496.098 155.545 498.637 159.823 499.926 164.765C501.197 169.638 501.2 174.551 499.938 179.423L499.939 179.424C499.426 181.476 498.747 183.42 497.89 185.242L497.865 185.296L497.838 185.349C496.909 187.206 495.68 188.968 494.215 190.643L494.037 190.847L493.838 191.031C493.194 191.623 492.503 192.169 491.773 192.674C492.494 193 493.194 193.383 493.872 193.824C495.709 194.904 497.239 196.383 498.31 198.276C499.36 199.91 500.012 201.715 500.287 203.628C500.616 205.362 500.677 207.112 500.465 208.862C500.358 210.378 500.151 211.841 499.827 213.243L499.818 213.287L499.806 213.332C498.991 216.591 497.779 219.555 496.097 222.134L496.07 222.177L496.04 222.219C494.242 224.857 491.75 227.011 488.794 228.771C484.386 231.873 479.736 233.967 474.856 234.905C474.853 234.905 474.85 234.906 474.848 234.907C474.844 234.908 474.841 234.909 474.837 234.91L474.836 234.909C470.426 235.77 465.738 236.191 460.784 236.191H460.714L460.643 236.189C450.967 235.915 442.835 234.544 436.537 231.801L436.51 231.79C430.358 229.067 425.466 225.109 422.123 219.825L422.091 219.775L422.061 219.724C418.935 214.515 417.176 208.35 416.598 201.408L416.594 201.372L416.592 201.335C416.129 194.574 416.274 186.98 416.996 178.579L417.002 178.503L417.011 178.426C417.843 171.307 419.355 165.198 421.706 160.291L421.716 160.272L421.725 160.254C424.077 155.446 427.395 151.276 431.615 147.757L432.437 147.087C436.575 143.804 441.17 141.506 446.195 140.25V140.251ZM471.315 198.548C470.329 198.655 469.333 198.747 468.326 198.825L468.327 198.826C463.703 199.189 459.201 199.371 454.824 199.371H450.27C450.282 199.479 450.294 199.584 450.308 199.685C450.465 200.834 450.671 201.293 450.703 201.362C452.064 203.459 453.106 203.958 453.607 204.078L453.616 204.08L453.625 204.083C456.372 204.753 459.155 204.698 462.06 203.868L462.12 203.85L462.181 203.835C465.083 203.084 468.137 201.409 471.315 198.548ZM462.718 167.221C461.966 167.071 461.085 167.03 460.044 167.152L459.753 167.186H459.544C458.089 167.39 456.864 167.827 455.808 168.461L455.774 168.48L455.74 168.5C454.605 169.157 453.856 169.837 453.36 170.487C453.169 170.776 453.026 171.013 452.92 171.201C454.253 171.301 455.792 171.356 457.552 171.357C460.222 171.299 463.093 170.977 466.172 170.372C465.823 169.542 465.311 168.768 464.592 168.035C463.819 167.327 463.436 167.312 463.404 167.31L463.058 167.29L462.718 167.221Z" fill="white" stroke="#E6B9C6" stroke-width="10"/>
<path d="M381.069 140.108C384.924 138.456 388.927 137.965 392.935 138.822L393.323 138.909L393.332 138.911L393.341 138.913C399 140.267 403.075 143.839 404.879 149.38L404.892 149.419L404.903 149.457C405.658 151.909 406.239 154.266 406.634 156.524L406.716 157.008C406.88 158.051 406.963 159.113 406.976 160.189C407.03 160.746 407.101 161.305 407.19 161.865L407.296 162.484L407.354 162.808L407.37 163.137C407.722 170.444 408.075 177.708 408.427 184.928L408.596 187.63C408.941 193.04 409.337 198.474 409.781 203.934L410.008 206.665V206.67C410.275 209.882 410.458 212.56 410.551 214.683C410.64 216.736 410.646 218.555 410.553 220.096C410.546 221.381 410.456 222.646 410.222 223.813C410.078 224.821 409.804 225.844 409.345 226.829C408.744 228.338 407.952 229.742 406.943 231.003C405.615 232.663 403.892 233.793 402.003 234.501C400.454 235.191 398.779 235.672 397.02 235.983L396.896 236.004L396.771 236.02C395.183 236.218 393.649 236.324 392.178 236.324C390.725 236.324 389.318 236.221 388.018 235.961L387.788 235.915L387.562 235.848C386.004 235.381 384.574 234.588 383.277 233.645L383.185 233.577L383.095 233.506C382.472 233.008 381.847 232.434 381.226 231.813L381.065 231.653L380.92 231.478C380.151 230.555 379.511 229.487 378.965 228.394L378.836 228.137L378.737 227.867C378.63 227.572 378.524 227.267 378.42 226.953C377.946 227.338 377.475 227.718 377.004 228.091L376.952 228.132L376.9 228.171C374.513 229.962 372.003 231.471 369.373 232.685C366.597 233.966 363.638 234.804 360.521 235.22C357.233 235.659 353.726 235.474 350.058 234.78V234.779C346.606 234.147 343.417 232.974 340.552 231.211C337.799 229.518 335.393 227.436 333.357 224.972C331.399 222.601 329.761 219.984 328.439 217.138C327.117 214.289 326.154 211.295 325.549 208.168L325.545 208.149L325.541 208.128C324.558 202.822 324.492 197.658 325.407 192.673C326.294 187.757 327.888 183.236 330.229 179.163C332.553 175.122 335.499 171.614 339.056 168.667C342.653 165.687 346.688 163.511 351.13 162.168C355.581 160.823 360.276 160.379 365.168 160.779C367.394 160.96 369.605 161.369 371.799 161.991C371.703 160.26 371.707 158.615 371.818 157.062C371.918 153.379 372.42 149.99 373.623 147.227C374.919 143.749 377.863 141.545 380.994 140.141L381.031 140.123L381.069 140.108ZM367.928 191.152C366.658 191.081 365.28 191.111 363.788 191.255C362.424 191.459 361.552 191.784 361.018 192.089L360.732 192.252L360.43 192.376C359.596 192.717 358.881 193.29 358.255 194.317C357.553 195.624 357.226 196.849 357.175 198.032C357.126 199.155 357.359 200.144 357.885 201.1C358.088 201.47 358.408 201.844 359.438 202.091L359.574 202.124L359.708 202.164C359.903 202.223 360.026 202.242 360.082 202.248C360.086 202.249 360.09 202.249 360.094 202.249L360.345 202.218H360.655C362.172 202.218 363.508 201.989 364.699 201.572L365.405 201.325C366.652 200.791 367.799 200.215 368.849 199.597L368.901 199.566L368.956 199.536C369.558 199.202 370.15 198.821 370.733 198.393L370.28 191.421C369.506 191.238 368.817 191.16 368.205 191.16H368.066L367.928 191.152Z" fill="white" stroke="#E6B9C6" stroke-width="10"/>
<path d="M284.906 141.293C289.124 141.293 293.072 141.521 296.742 141.989C300.774 142.401 304.527 143.427 307.937 145.131L307.936 145.132C311.505 146.829 314.509 149.38 316.952 152.654H316.953C316.96 152.663 316.966 152.672 316.973 152.68C316.982 152.693 316.992 152.705 317.001 152.717H317C319.376 155.837 321.147 159.78 322.456 164.333L322.714 165.257L322.748 165.386L322.776 165.516C323.755 170.113 324.17 175.226 324.077 180.812V180.813C323.983 186.393 323.273 191.961 321.956 197.511C320.71 203.133 318.748 208.444 316.063 213.429L316.054 213.448L316.044 213.465C313.214 218.62 309.459 222.819 304.766 225.948C299.835 229.235 294.615 231.634 289.114 233.107C283.609 234.582 278.126 235.041 272.699 234.438L272.653 234.433L272.608 234.427C267.17 233.722 262.001 231.958 257.129 229.174L257.096 229.156L257.063 229.136C252.043 226.166 247.74 222.021 244.119 216.835L243.956 216.601L243.82 216.35C241.849 212.704 240.336 208.787 239.269 204.616L239.266 204.603L239.262 204.589C238.203 200.356 237.621 196.102 237.524 191.836V191.833C237.429 187.525 237.764 183.258 238.531 179.04L238.541 178.986L238.552 178.932C239.421 174.681 240.735 170.675 242.508 166.933L242.521 166.906L242.534 166.88C246.645 158.461 252.542 152.033 260.261 147.863C267.772 143.766 275.957 141.585 284.741 141.296L284.824 141.293H284.906ZM287.404 174.193C286.561 173.893 285.08 173.655 282.692 173.799L282.646 173.802L282.598 173.804C282.584 173.806 282.432 173.819 282.114 173.919C281.774 174.025 281.312 174.209 280.719 174.505C279.52 175.105 277.986 176.065 276.091 177.465L275.993 177.537L275.893 177.604C275.531 177.845 274.702 178.593 273.403 180.295C270.915 183.675 269.936 186.11 269.736 187.707L269.733 187.73L269.73 187.754C269.283 191.074 269.967 194.423 272.069 197.956C272.881 199.193 274.884 200.725 279.483 201.743C281.537 201.939 282.733 201.53 283.5 200.999C284.995 199.934 286.214 198.598 287.177 196.94C288.254 194.994 289.052 192.894 289.565 190.621L289.582 190.547L289.602 190.472C290.251 187.958 290.633 185.735 290.782 183.789L290.796 183.599L290.825 183.412C290.928 182.746 290.917 182.178 290.835 181.683L290.802 181.481L290.784 181.276C290.726 180.577 290.612 179.872 290.446 179.156C290.242 178.622 290.044 178.125 289.847 177.666L289.722 177.374L289.635 177.069C289.539 176.733 289.42 176.388 289.276 176.034C288.741 175.125 288.118 174.564 287.404 174.193Z" fill="white" stroke="#E6B9C6" stroke-width="10"/>
<path d="M191.621 199.403C191.621 200.984 191.574 203.209 191.485 206.05V206.055C191.39 208.998 191.107 212.095 190.644 215.342C190.256 218.571 189.586 221.686 188.628 224.68L188.629 224.681C187.656 227.925 186.033 230.878 183.421 232.947C181.781 234.342 179.811 235.08 177.873 235.443C175.939 235.806 173.974 235.86 171.997 235.627L171.979 235.625L171.961 235.622C170.123 235.392 168.339 234.932 166.618 234.244L166.426 234.167L166.239 234.073C164.398 233.153 162.712 231.796 161.581 229.861C160.503 228.207 160.119 226.202 159.934 224.623C159.744 223.015 159.603 221.367 159.51 219.681L159.502 219.542V211.589C159.502 210.183 159.548 207.999 159.637 205.08L159.639 205.009L159.644 204.938C159.811 202.087 159.853 199.141 159.769 196.099V196.095C159.696 193.397 159.496 190.852 159.174 188.456L159.017 187.356L159.007 187.273C158.683 184.518 158.143 183.414 157.953 183.155L157.888 183.066L157.849 183.009L157.383 182.698C156.897 182.681 156.065 182.731 154.794 182.976C154.15 183.121 153.451 183.305 152.694 183.531C152.455 183.603 152.163 183.739 151.811 184.013L151.776 184.04L151.741 184.067C151.655 184.131 151.511 184.261 151.333 184.514C151.294 184.662 151.228 184.993 151.225 185.585C151.401 190.285 151.355 194.945 151.083 199.565V199.57C150.818 203.991 150.465 208.453 150.025 212.957C149.824 220.341 148.397 226.856 144.542 231.055L144.543 231.056C142.05 233.881 138.138 235.185 134.219 235.855L134.218 235.854C130.18 236.591 126.237 235.841 122.555 233.885L122.53 233.872L122.506 233.859C117.381 231.063 115.445 225.604 115.14 219.798L115.139 219.785C115.047 217.95 115 216.232 115 214.635V209.853L115.009 209.706C115.09 208.322 115.133 206.745 115.133 204.967C115.133 202.95 115.178 200.766 115.269 198.417C115.355 196.174 115.397 194.12 115.397 192.252V167.412C115.49 160.953 116.312 155.397 118.218 151.138C120.209 146.687 123.576 143.33 128.51 142.433L128.633 142.41L128.757 142.395C130.754 142.134 132.689 142.018 134.554 142.064L135.349 142.094L135.534 142.103L135.719 142.126C138.899 142.524 141.77 143.878 143.92 146.373C144.528 147.079 145.045 147.842 145.487 148.647C146.155 147.937 146.848 147.265 147.567 146.636L147.624 146.586L147.682 146.539C149.547 145.003 151.617 143.752 153.869 142.78C156.318 141.635 159.061 140.961 162.001 140.657L162.158 140.641L162.315 140.634C164.812 140.534 167.226 140.758 169.523 141.359L169.981 141.484L170.013 141.494L170.045 141.503C172.59 142.266 174.832 143.695 176.789 145.558L177.177 145.936L177.204 145.964L177.232 145.992C178.651 147.456 179.9 149.032 180.981 150.714C183.346 148.556 185.837 146.699 188.46 145.159V145.16C193.119 142.39 197.912 140.832 202.729 141.027H203.137C207.728 140.848 212.016 141.744 215.813 143.915C219.427 145.935 222.483 148.612 224.939 151.922C227.304 155.11 229.095 158.645 230.316 162.498L230.53 163.175C231.574 166.553 232.211 169.877 232.404 173.137C232.76 178.91 232.942 183.979 232.944 188.33C233.033 192.526 233.033 196.225 232.942 199.414L232.941 199.418C232.851 202.475 232.671 205.2 232.391 207.572C232.215 209.767 232.039 211.794 231.862 213.652C231.587 216.763 231.216 219.606 230.741 222.168L230.735 222.201C230.209 224.937 229.336 227.473 228.033 229.723L228.031 229.722C226.697 232.091 224.805 233.975 222.426 235.297L222.381 235.321L222.337 235.345C219.883 236.644 217.059 237.118 214.17 237.118H212.229L211.707 236.987C211.694 236.987 211.677 236.985 211.653 236.985H211.384L211.115 236.956C206.971 236.508 203.131 234.945 200.545 231.599L200.468 231.5L200.396 231.398C198.525 228.708 197.341 225.66 196.788 222.344L196.774 222.264L196.764 222.183C196.365 219.193 196.269 216.13 196.465 212.999C196.636 210.264 196.717 207.962 196.719 206.075C196.631 203.413 196.587 200.792 196.587 198.212V198.128L196.59 198.045C196.674 195.505 196.674 193.013 196.59 190.569L196.587 190.484V186.954C196.587 185.856 196.484 184.751 196.275 183.637L196.247 183.487L196.229 183.336C196.121 182.48 195.895 181.801 195.596 181.245L195.56 181.178L195.525 181.11L195.524 181.109C195.518 181.107 195.511 181.104 195.503 181.102L195.429 181.076L195.355 181.05C194.05 180.569 193.254 180.48 192.855 180.494C192.802 180.496 192.759 180.5 192.727 180.504C192.447 180.86 191.922 181.834 191.737 184.168L191.732 184.229L191.727 184.289C191.482 186.651 191.358 189.06 191.355 191.517C191.443 194.047 191.531 196.621 191.618 199.237L191.621 199.32V199.403Z" fill="white" stroke="#E6B9C6" stroke-width="10"/>
<defs>
<filter id="filter0_g_9_220" x="0" y="0" width="414.947" height="172.588" filterUnits="userSpaceOnUse" color-interpolation-filters="sRGB">
<feFlood flood-opacity="0" result="BackgroundImageFix"/>
<feBlend mode="normal" in="SourceGraphic" in2="BackgroundImageFix" result="shape"/>
<feTurbulence type="fractalNoise" baseFrequency="0.019999999552965164 0.019999999552965164" numOctaves="3" seed="6036" />
<feDisplacementMap in="shape" scale="20" xChannelSelector="R" yChannelSelector="G" result="displacedImage" width="100%" height="100%" />
<feMerge result="effect1_texture_9_220">
<feMergeNode in="displacedImage"/>
</feMerge>
</filter>
</defs>
</svg>
